D:\school\WTK\thesis\model\3dpredictsim\Results\Batchsim_tmt_linear_v2\Pog_s1_tmt_aCst_d05_k800_ig24_act_GRF.mot
nRows=27
nColumns=19

name D:\school\WTK\thesis\model\3dpredictsim\Results\Batchsim_tmt_linear_v2\Pog_s1_tmt_aCst_d05_k800_ig24_act_GRF.mot
datacolumns 19
datarows 27
range 0.6492149928 0.9868067891
endheader
time 	ground_force_vx	ground_force_vy	ground_force_vz	ground_force_px	ground_force_py	ground_force_pz	1_ground_force_vx	1_ground_force_vy	1_ground_force_vz	1_ground_force_px	1_ground_force_py	1_ground_force_pz	ground_torque_x	ground_torque_y	ground_torque_z	1_ground_torque_x	1_ground_torque_y	1_ground_torque_z
        0.6492149928	       86.3904519991	      351.0044013723	       -4.3349289496	        0.4360541342	        0.0000000000	        0.0433349367	      -29.8650305595	       23.4664845981	       -2.8411495283	        1.0408174670	        0.0000000000	       -0.0533676733	        0.0000000000	        0.0000000000	        0.0000000000	        0.0000000000	        0.0000000000	        0.0000000000	
        0.6621992927	       32.8939799760	      225.0030687415	        8.9232522688	        0.4771642861	        0.0000000000	        0.0390711946	     -120.1986811177	      116.1397009114	      -12.4709879171	        1.0489161884	        0.0000000000	       -0.0525749049	        0.0000000000	        0.0000000000	        0.0000000000	        0.0000000000	        0.0000000000	        0.0000000000	
        0.6751835925	       22.9187768443	      191.8271566917	        9.9453151060	        0.4808009287	        0.0000000000	        0.0380865226	      -85.1761634358	      353.5658595304	       -0.1556290737	        1.0545078574	        0.0000000000	       -0.0518882390	        0.0000000000	        0.0000000000	        0.0000000000	        0.0000000000	        0.0000000000	        0.0000000000	
        0.6881678924	       22.6041490571	      151.6904640927	       10.1708916007	        0.4814061452	        0.0000000000	        0.0382033241	     -102.7509934803	      599.7553128195	       10.2294494310	        1.0574641816	        0.0000000000	       -0.0519543113	        0.0000000000	        0.0000000000	        0.0000000000	        0.0000000000	        0.0000000000	        0.0000000000	
        0.7011521922	       15.1759291476	       99.6980128283	       12.4484031902	        0.4818421063	        0.0000000000	        0.0386675818	     -164.2519705775	      833.4443540425	       19.1818941534	        1.0671274952	        0.0000000000	       -0.0539441642	        0.0000000000	        0.0000000000	        0.0000000000	        0.0000000000	        0.0000000000	        0.0000000000	
        0.7141364921	        0.9182947256	       39.5749373252	        8.2275575720	        0.4814726414	        0.0000000000	        0.0390322051	     -205.9902852157	      970.0181468560	       23.3580178299	        1.0772444726	        0.0000000000	       -0.0561393871	        0.0000000000	        0.0000000000	        0.0000000000	        0.0000000000	        0.0000000000	        0.0000000000	
        0.7271207920	        0.5225616439	       -0.5087928686	        0.0004322077	        0.0000000000	        0.0000000000	        0.0000000000	     -199.0951242328	      955.6479585788	       22.6745456362	        1.0840630434	        0.0000000000	       -0.0574642471	        0.0000000000	        0.0000000000	        0.0000000000	        0.0000000000	        0.0000000000	        0.0000000000	
        0.7401050918	        0.4305023998	       -0.3269716304	        0.0335878091	        0.0000000000	        0.0000000000	        0.0000000000	     -169.5693960044	      868.3324608105	       20.3627981607	        1.0891527483	        0.0000000000	       -0.0583351979	        0.0000000000	        0.0000000000	        0.0000000000	        0.0000000000	        0.0000000000	        0.0000000000	
        0.7530893917	       -4.7205782685	        3.0764567728	       -0.4012563261	        0.0000000000	        0.0000000000	        0.0000000000	     -147.3791396195	      787.1667852324	       17.1833966952	        1.0933559130	        0.0000000000	       -0.0589376917	        0.0000000000	        0.0000000000	        0.0000000000	        0.0000000000	        0.0000000000	        0.0000000000	
        0.7660736915	       -3.3399813207	        1.9388625818	       -0.2786761620	        0.0000000000	        0.0000000000	        0.0000000000	     -128.5655447458	      740.8482704294	       15.1508463135	        1.0974566372	        0.0000000000	       -0.0593103965	        0.0000000000	        0.0000000000	        0.0000000000	        0.0000000000	        0.0000000000	        0.0000000000	
        0.7790579914	       -2.5936004559	        1.3850411584	       -0.1978380808	        0.0000000000	        0.0000000000	        0.0000000000	     -115.5277872986	      718.1001814238	       14.9220649443	        1.1027375521	        0.0000000000	       -0.0595843835	        0.0000000000	        0.0000000000	        0.0000000000	        0.0000000000	        0.0000000000	        0.0000000000	
        0.7920422912	       -1.9454538515	        0.9778853420	       -0.1319302553	        0.0000000000	        0.0000000000	        0.0000000000	     -106.3038366192	      702.0767193242	       14.8635095956	        1.1088544814	        0.0000000000	       -0.0594176204	        0.0000000000	        0.0000000000	        0.0000000000	        0.0000000000	        0.0000000000	        0.0000000000	
        0.8050265911	       -1.3995526702	        0.6750731229	       -0.0759143919	        0.0000000000	        0.0000000000	        0.0000000000	      -96.3515892207	      680.1542111810	       14.6239600195	        1.1144591229	        0.0000000000	       -0.0591719014	        0.0000000000	        0.0000000000	        0.0000000000	        0.0000000000	        0.0000000000	        0.0000000000	
        0.8180108910	       -1.0734897032	        0.5005579062	       -0.0461482880	        0.0000000000	        0.0000000000	        0.0000000000	      -87.3060097127	      657.1152770679	       14.6646816897	        1.1196019161	        0.0000000000	       -0.0588814709	        0.0000000000	        0.0000000000	        0.0000000000	        0.0000000000	        0.0000000000	        0.0000000000	
        0.8309951908	       -0.9095664820	        0.4121829793	       -0.0299615185	        0.0000000000	        0.0000000000	        0.0000000000	      -79.0765802470	      636.7508516101	       15.0699369218	        1.1243878944	        0.0000000000	       -0.0585382278	        0.0000000000	        0.0000000000	        0.0000000000	        0.0000000000	        0.0000000000	        0.0000000000	
        0.8439794907	       -0.8484538303	        0.3753862962	       -0.0207019543	        0.0000000000	        0.0000000000	        0.0000000000	      -71.2902168842	      619.4156641756	       15.8360847603	        1.1287885877	        0.0000000000	       -0.0582164312	        0.0000000000	        0.0000000000	        0.0000000000	        0.0000000000	        0.0000000000	        0.0000000000	
        0.8569637905	       -0.8601445519	        0.3723430011	       -0.0151672257	        0.0000000000	        0.0000000000	        0.0000000000	      -63.7288491270	      604.8561639767	       16.7498313348	        1.1328724952	        0.0000000000	       -0.0579137613	        0.0000000000	        0.0000000000	        0.0000000000	        0.0000000000	        0.0000000000	        0.0000000000	
        0.8699480904	       -0.9436593262	        0.4002044516	       -0.0119095371	        0.0000000000	        0.0000000000	        0.0000000000	      -56.6924062573	      592.1785967318	       17.6630042921	        1.1366509412	        0.0000000000	       -0.0576206186	        0.0000000000	        0.0000000000	        0.0000000000	        0.0000000000	        0.0000000000	        0.0000000000	
        0.8829323902	       -1.0894362483	        0.4533520472	       -0.0096255595	        0.0000000000	        0.0000000000	        0.0000000000	      -50.4590299128	      581.3809367095	       18.4321833386	        1.1401064047	        0.0000000000	       -0.0573330210	        0.0000000000	        0.0000000000	        0.0000000000	        0.0000000000	        0.0000000000	        0.0000000000	
        0.8959166901	       -1.2796492701	        0.5236318290	       -0.0072974080	        0.0000000000	        0.0000000000	        0.0000000000	      -44.7784013870	      571.6708269276	       18.8317011005	        1.1432130708	        0.0000000000	       -0.0570611643	        0.0000000000	        0.0000000000	        0.0000000000	        0.0000000000	        0.0000000000	        0.0000000000	
        0.9089009899	       -1.4852651673	        0.5989646305	       -0.0044862663	        0.0000000000	        0.0000000000	        0.0000000000	      -39.5802511435	      562.6360412113	       19.1640372133	        1.1459789221	        0.0000000000	       -0.0568034929	        0.0000000000	        0.0000000000	        0.0000000000	        0.0000000000	        0.0000000000	        0.0000000000	
        0.9218852898	       -1.6692814965	        0.6649532344	       -0.0013805797	        0.0000000000	        0.0000000000	        0.0000000000	      -34.6214089992	      554.3157882661	       19.5882601935	        1.1484120149	        0.0000000000	       -0.0565557598	        0.0000000000	        0.0000000000	        0.0000000000	        0.0000000000	        0.0000000000	        0.0000000000	
        0.9348695897	       -1.7996910348	        0.7096905070	        0.0014119393	        0.0000000000	        0.0000000000	        0.0000000000	      -29.7084566373	      546.5596775669	       20.1766436702	        1.1505111059	        0.0000000000	       -0.0563129561	        0.0000000000	        0.0000000000	        0.0000000000	        0.0000000000	        0.0000000000	        0.0000000000	
        0.9478538895	       -1.8768727477	        0.7335965712	        0.0035639987	        0.0000000000	        0.0000000000	        0.0000000000	      -24.5771866821	      539.3261055443	       20.4966349906	        1.1523051848	        0.0000000000	       -0.0560806959	        0.0000000000	        0.0000000000	        0.0000000000	        0.0000000000	        0.0000000000	        0.0000000000	
        0.9608381894	       -1.9320824153	        0.7487611890	        0.0052347592	        0.0000000000	        0.0000000000	        0.0000000000	      -19.2428936309	      533.2225823491	       20.5646452030	        1.1538435987	        0.0000000000	       -0.0558556698	        0.0000000000	        0.0000000000	        0.0000000000	        0.0000000000	        0.0000000000	        0.0000000000	
        0.9738224892	       -1.9423289930	        0.7469277537	        0.0071836285	        0.0000000000	        0.0000000000	        0.0000000000	      -13.7449567840	      528.8789786987	       20.4420471926	        1.1551266718	        0.0000000000	       -0.0556325574	        0.0000000000	        0.0000000000	        0.0000000000	        0.0000000000	        0.0000000000	        0.0000000000	
        0.9868067891	       -1.8394959971	        0.7027721220	        0.0097019103	        0.0000000000	        0.0000000000	        0.0000000000	       -7.9687125737	      526.7539461131	       20.0040957973	        1.1561852913	        0.0000000000	       -0.0554101287	        0.0000000000	        0.0000000000	        0.0000000000	        0.0000000000	        0.0000000000	        0.0000000000	
